# xmcd
#
# Track frame offsets:
#	182
#	20037
#	40195
#
# Disc length: 834 seconds
#
# Revision: 3
# Processed by: cddbd v1.5.2PL0 Copyright (c) Steve Scherf et al.
# Submitted via: audiograbber 1.83.01
#
DISCID=1e034003
DTITLE=R. Kelly - Did you ever think
DYEAR=1998
DGENRE=Soul
TTITLE0=Did you ever think (Remix feat. Nas)
TTITLE1=Did you ever think (Album version)
TTITLE2=Home alone (feat. Keith Murray)
EXTD=
EXTT0=
EXTT1=
EXTT2=
PLAYORDER=
